<svg xmlns="http://www.w3.org/2000/svg" width="33.776" height="33.776" viewBox="0 0 33.776 33.776">
  <g id="Agrupar_4" data-name="Agrupar 4" transform="translate(-78 -1747)">
    <g id="facebook-logo-in-circular-button-outlined-social-symbol" transform="translate(78 1747.224)">
      <g id="Agrupar_3" data-name="Agrupar 3">
        <path id="Caminho_1157" data-name="Caminho 1157" d="M229.008,149.325v-9.747h3.216l.508-3.23h-3.725v-1.62c0-.843.276-1.647,1.486-1.647h2.418v-3.224h-3.433c-2.886,0-3.674,1.9-3.674,4.535v1.954h-1.98v3.232h1.98v9.747Z" transform="translate(-211.472 -122.689)" fill="#fff"/>
      </g>
    </g>
    <path id="Caminho_1161" data-name="Caminho 1161" d="M24.632,0H9.142A9.153,9.153,0,0,0,0,9.143v15.49a9.153,9.153,0,0,0,9.143,9.143h15.49a9.153,9.153,0,0,0,9.143-9.143V9.143A9.153,9.153,0,0,0,24.632,0Zm7.163,24.633A7.171,7.171,0,0,1,24.632,31.8H9.142a7.171,7.171,0,0,1-7.163-7.162V9.143A7.171,7.171,0,0,1,9.142,1.98h15.49a7.171,7.171,0,0,1,7.162,7.163Zm0,0" transform="translate(78.001 1747)" fill="#fff"/>
  </g>
</svg>
