<svg xmlns="http://www.w3.org/2000/svg" width="33.776" height="33.776" viewBox="0 0 33.776 33.776">
  <g id="instagram" transform="translate(0.001)">
    <path id="Caminho_1158" data-name="Caminho 1158" d="M24.632,0H9.142A9.153,9.153,0,0,0,0,9.143v15.49a9.153,9.153,0,0,0,9.143,9.143h15.49a9.153,9.153,0,0,0,9.143-9.143V9.143A9.153,9.153,0,0,0,24.632,0Zm7.163,24.633A7.171,7.171,0,0,1,24.632,31.8H9.142a7.171,7.171,0,0,1-7.163-7.162V9.143A7.171,7.171,0,0,1,9.142,1.98h15.49a7.171,7.171,0,0,1,7.162,7.163Zm0,0" fill="#fff"/>
    <path id="Caminho_1159" data-name="Caminho 1159" d="M125.239,116a9.235,9.235,0,1,0,9.235,9.235A9.246,9.246,0,0,0,125.239,116Zm0,16.49a7.255,7.255,0,1,1,7.255-7.255A7.263,7.263,0,0,1,125.239,132.494Zm0,0" transform="translate(-108.352 -108.351)" fill="#fff"/>
    <path id="Caminho_1160" data-name="Caminho 1160" d="M360.706,66.285a2.729,2.729,0,1,0,2.729,2.729A2.732,2.732,0,0,0,360.706,66.285Zm0,3.478a.749.749,0,1,1,.749-.749A.75.75,0,0,1,360.706,69.763Zm0,0" transform="translate(-334.363 -61.913)" fill="#fff"/>
  </g>
</svg>
